<svg style="object-fit:cover" id="my-svg" version="1" baseProfile="full" width="100%" height="100%" viewBox="0 0 2560 1329" xmlns="http://www.w3.org/2000/svg"><defs><linearGradient id="linear-gradient" x1="0" x2="1" y1="0" y2="1"><stop offset="0%" stop-color="#c81d1190"/><stop offset="100%" stop-color="#1c39bb90"/></linearGradient></defs><path transform="scale(1, 1)" d="M 0,1329 V 0,1029 C 173.0476190476191,1149.642857142857 346.0952380952382,1270.2857142857142 559,1291 C 771.9047619047618,1311.7142857142858 1024.6666666666665,1232.5 1282,1218 C 1539.3333333333335,1203.5 1801.2380952380954,1253.7142857142858 2015,1233 C 2228.7619047619046,1212.2857142857142 2394.3809523809523,1120.642857142857 2560,1029 C 2560,1029 2560,1329 2560,1329 Z" stroke="none" stroke-width="0" fill="url(#linear-gradient)" class="transition-all duration-300 ease-in-out delay-150" style="transform-origin: center center;"/><defs><linearGradient id="linear-gradient" x1="0" x2="1" y1="0" y2="1"><stop offset="0%" stop-color="#c81d11ff"/><stop offset="100%" stop-color="#1c39bbff"/></linearGradient></defs><path transform="scale(1, 1)" d="M 0,1329 V 0,1543 C 244.3690476190476,1640.357142857143 488.7380952380952,1737.7142857142858 676,1766 C 863.2619047619048,1794.2857142857142 993.4166666666667,1753.5 1210,1607 C 1426.5833333333333,1460.5 1729.595238095238,1208.2857142857142 1969,1180 C 2208.404761904762,1151.7142857142858 2384.2023809523807,1347.357142857143 2560,1543 C 2560,1543 2560,1329 2560,1329 Z" stroke="none" stroke-width="0" fill="url(#linear-gradient)" class="transition-all duration-300 ease-in-out delay-150" style="transform-origin: center center;"/></svg>
