<svg style="object-fit:cover" id="my-svg" version="1" baseProfile="full" width="100%" height="100%" viewBox="0 0 2560 1329" xmlns="http://www.w3.org/2000/svg"><rect width="2560" height="1329" fill="#000"/><defs><linearGradient id="linear-gradient" x1="1" x2="0" y1="0.5" y2="0.5"><stop offset="0%" stop-color="#c81d1190"/><stop offset="100%" stop-color="#1c39bb90"/></linearGradient></defs><path transform="scale(1, -1)" d="M 0,1329 V 0,1029 C 168.28803418803415,1063.8487179487179 336.5760683760683,1098.697435897436 490,1149 C 643.4239316239317,1199.302564102564 781.9837606837607,1265.0589743589744 923,1229 C 1064.0162393162393,1192.9410256410256 1207.4888888888888,1055.0666666666666 1354,1074 C 1500.5111111111112,1092.9333333333334 1650.060683760684,1268.6743589743592 1761,1184 C 1871.939316239316,1099.3256410256408 1944.2683760683763,754.2358974358974 2071,685 C 2197.7316239316237,615.7641025641026 2378.865811965812,822.3820512820513 2560,1029 C 2560,1029 2560,1329 2560,1329 Z" stroke="none" stroke-width="0" fill="url(#linear-gradient)" class="transition-all duration-300 ease-in-out delay-150" style="transform-origin: center center;"/><defs><linearGradient id="linear-gradient" x1="1" x2="0" y1="0.5" y2="0.5"><stop offset="0%" stop-color="#c81d11ff"/><stop offset="100%" stop-color="#1c39bbff"/></linearGradient></defs><path transform="scale(1, -1)" d="M 0,1329 V 0,1543 C 135.87521367521367,1720.4435897435897 271.75042735042734,1897.8871794871795 415,1897 C 558.2495726495727,1896.1128205128205 708.8735042735043,1716.894871794872 846,1716 C 983.1264957264957,1715.105128205128 1106.7555555555552,1892.5333333333333 1245,1787 C 1383.2444444444448,1681.4666666666667 1536.1042735042736,1292.971794871795 1680,1173 C 1823.8957264957264,1053.028205128205 1958.8273504273502,1201.579487179487 2104,1308 C 2249.17264957265,1414.420512820513 2404.586324786325,1478.7102564102565 2560,1543 C 2560,1543 2560,1329 2560,1329 Z" stroke="none" stroke-width="0" fill="url(#linear-gradient)" class="transition-all duration-300 ease-in-out delay-150" style="transform-origin: center center;"/></svg>